<svg width="96" height="96" viewBox="0 0 96 96" fill="none" xmlns="http://www.w3.org/2000/svg">
<g clip-path="url(#clip0_146_2530)">
<path d="M48.0009 45.911C56.0694 45.911 62.6102 39.3702 62.6102 31.3017C62.6102 23.2332 56.0694 16.6924 48.0009 16.6924C39.9324 16.6924 33.3916 23.2332 33.3916 31.3017C33.3916 39.3702 39.9324 45.911 48.0009 45.911Z" fill="url(#paint0_linear_146_2530)"/>
<path d="M48.001 66.7813C52.6116 66.7813 56.3492 63.0437 56.3492 58.4331C56.3492 53.8226 52.6116 50.085 48.001 50.085C43.3904 50.085 39.6528 53.8226 39.6528 58.4331C39.6528 63.0437 43.3904 66.7813 48.001 66.7813Z" fill="url(#paint1_linear_146_2530)"/>
<path d="M48.001 96C52.6116 96 56.3492 92.2624 56.3492 87.6519C56.3492 83.0413 52.6116 79.3037 48.001 79.3037C43.3904 79.3037 39.6528 83.0413 39.6528 87.6519C39.6528 92.2624 43.3904 96 48.001 96Z" fill="url(#paint2_linear_146_2530)"/>
<path d="M25.0435 89.7383C29.654 89.7383 33.3916 86.0007 33.3916 81.3902C33.3916 76.7796 29.654 73.042 25.0435 73.042C20.4329 73.042 16.6953 76.7796 16.6953 81.3902C16.6953 86.0007 20.4329 89.7383 25.0435 89.7383Z" fill="url(#paint3_linear_146_2530)"/>
<path d="M70.9585 89.7383C75.5691 89.7383 79.3067 86.0007 79.3067 81.3902C79.3067 76.7796 75.5691 73.042 70.9585 73.042C66.348 73.042 62.6104 76.7796 62.6104 81.3902C62.6104 86.0007 66.348 89.7383 70.9585 89.7383Z" fill="url(#paint4_linear_146_2530)"/>
<g filter="url(#filter0_bi_146_2530)">
<path d="M68.4539 54.2592C68.0394 54.2591 67.6344 54.1356 67.2903 53.9045C66.9463 53.6733 66.6788 53.345 66.5221 52.9612C66.3654 52.5775 66.3265 52.1558 66.4104 51.7499C66.4942 51.344 66.6971 50.9722 66.993 50.682C70.8417 46.9095 73.4797 42.0764 74.5707 36.7987C75.6617 31.5211 75.1563 26.0381 73.1188 21.0489C71.0814 16.0596 67.6042 11.7902 63.1308 8.78492C58.6573 5.77964 53.3902 4.17468 48.0009 4.17468C42.6117 4.17468 37.3446 5.77964 32.8711 8.78492C28.3976 11.7902 24.9205 16.0596 22.8831 21.0489C20.8456 26.0381 20.3402 31.5211 21.4312 36.7987C22.5222 42.0764 25.1602 46.9095 29.0089 50.682C29.2091 50.8728 29.3694 51.1015 29.4805 51.3548C29.5916 51.6081 29.6512 51.8809 29.656 52.1574C29.6607 52.434 29.6104 52.7087 29.508 52.9656C29.4056 53.2226 29.2532 53.4566 29.0595 53.6541C28.8659 53.8516 28.6349 54.0086 28.3801 54.1161C28.1252 54.2236 27.8516 54.2793 27.575 54.28C27.2984 54.2808 27.0244 54.2266 26.769 54.1205C26.5135 54.0145 26.2817 53.8587 26.087 53.6623C21.6462 49.3095 18.6024 43.7327 17.3435 37.6432C16.0847 31.5536 16.6679 25.2271 19.0188 19.4702C21.3697 13.7134 25.3817 8.78715 30.5434 5.31951C35.7051 1.85188 41.7826 0 48.0009 0C54.2193 0 60.2967 1.85188 65.4584 5.31951C70.6201 8.78715 74.6322 13.7134 76.9831 19.4702C79.334 25.2271 79.9172 31.5536 78.6583 37.6432C77.3995 43.7327 74.3556 49.3095 69.9149 53.6623C69.5248 54.0448 69.0003 54.2591 68.4539 54.2592Z" fill="#1D1D1D" fill-opacity="0.05"/>
<path d="M68.4539 54.2592C68.0394 54.2591 67.6344 54.1356 67.2903 53.9045C66.9463 53.6733 66.6788 53.345 66.5221 52.9612C66.3654 52.5775 66.3265 52.1558 66.4104 51.7499C66.4942 51.344 66.6971 50.9722 66.993 50.682C70.8417 46.9095 73.4797 42.0764 74.5707 36.7987C75.6617 31.5211 75.1563 26.0381 73.1188 21.0489C71.0814 16.0596 67.6042 11.7902 63.1308 8.78492C58.6573 5.77964 53.3902 4.17468 48.0009 4.17468C42.6117 4.17468 37.3446 5.77964 32.8711 8.78492C28.3976 11.7902 24.9205 16.0596 22.8831 21.0489C20.8456 26.0381 20.3402 31.5211 21.4312 36.7987C22.5222 42.0764 25.1602 46.9095 29.0089 50.682C29.2091 50.8728 29.3694 51.1015 29.4805 51.3548C29.5916 51.6081 29.6512 51.8809 29.656 52.1574C29.6607 52.434 29.6104 52.7087 29.508 52.9656C29.4056 53.2226 29.2532 53.4566 29.0595 53.6541C28.8659 53.8516 28.6349 54.0086 28.3801 54.1161C28.1252 54.2236 27.8516 54.2793 27.575 54.28C27.2984 54.2808 27.0244 54.2266 26.769 54.1205C26.5135 54.0145 26.2817 53.8587 26.087 53.6623C21.6462 49.3095 18.6024 43.7327 17.3435 37.6432C16.0847 31.5536 16.6679 25.2271 19.0188 19.4702C21.3697 13.7134 25.3817 8.78715 30.5434 5.31951C35.7051 1.85188 41.7826 0 48.0009 0C54.2193 0 60.2967 1.85188 65.4584 5.31951C70.6201 8.78715 74.6322 13.7134 76.9831 19.4702C79.334 25.2271 79.9172 31.5536 78.6583 37.6432C77.3995 43.7327 74.3556 49.3095 69.9149 53.6623C69.5248 54.0448 69.0003 54.2591 68.4539 54.2592Z" fill="url(#paint5_linear_146_2530)" fill-opacity="0.2"/>
<path d="M28.6588 51.0391L28.6589 51.0391C24.7393 47.1971 22.0526 42.2749 20.9415 36.9C19.8304 31.5251 20.3452 25.941 22.4202 20.8599C24.4952 15.7787 28.0364 11.4306 32.5923 8.36988C37.1482 5.30922 42.5124 3.67468 48.0009 3.67468C53.4895 3.67468 58.8537 5.30922 63.4096 8.36988C67.9655 11.4306 71.5067 15.7787 73.5817 20.8599C75.6567 25.941 76.1714 31.5251 75.0603 36.9C73.9492 42.2748 71.2626 47.197 67.3431 51.039C67.118 51.2597 66.9638 51.5424 66.9 51.851C66.8363 52.1597 66.8658 52.4804 66.985 52.7722C67.1042 53.064 67.3075 53.3137 67.5692 53.4895C67.8307 53.6652 68.1387 53.7591 68.4539 53.7592L28.6588 51.0391ZM28.6588 51.0391L28.664 51.044M28.6588 51.0391L28.664 51.044M28.664 51.044C28.8162 51.1891 28.9382 51.363 29.0226 51.5556C29.1071 51.7482 29.1525 51.9557 29.156 52.166C29.1596 52.3763 29.1214 52.5852 29.0435 52.7805C28.9656 52.9759 28.8497 53.1539 28.7025 53.3041C28.5552 53.4542 28.3796 53.5737 28.1858 53.6554C27.992 53.7371 27.7839 53.7795 27.5736 53.78C27.3633 53.7806 27.1549 53.7394 26.9607 53.6588C26.7665 53.5781 26.5902 53.4597 26.4421 53.3103L26.4421 53.3103M28.664 51.044L26.4421 53.3103M26.4421 53.3103L26.437 53.3052M26.4421 53.3103L26.437 53.3052M26.437 53.3052C22.0672 49.0219 19.0719 43.5343 17.8332 37.5419C16.5944 31.5496 17.1683 25.3241 19.4817 19.6593C21.795 13.9944 25.743 9.1468 30.8223 5.73455C35.9015 2.3223 41.8819 0.5 48.0009 0.5C54.12 0.5 60.1003 2.3223 65.1796 5.73455C70.2589 9.1468 74.2069 13.9944 76.5202 19.6593C78.8336 25.3241 79.4074 31.5496 78.1687 37.5419C76.93 43.5343 73.9347 49.0219 69.5649 53.3052L69.5648 53.3053M26.437 53.3052L69.5648 53.3053M69.5648 53.3053C69.2682 53.5961 68.8694 53.7591 68.454 53.7592L69.5648 53.3053Z" stroke="url(#paint6_linear_146_2530)" stroke-opacity="0.1"/>
</g>
<g filter="url(#filter1_bi_146_2530)">
<path d="M48.0011 83.4778C47.4476 83.4778 46.9167 83.2579 46.5253 82.8666C46.1339 82.4752 45.9141 81.9443 45.9141 81.3908V64.6945C45.9141 64.1409 46.1339 63.6101 46.5253 63.2187C46.9167 62.8273 47.4476 62.6074 48.0011 62.6074C48.5546 62.6074 49.0855 62.8273 49.4769 63.2187C49.8683 63.6101 50.0881 64.1409 50.0881 64.6945V81.3908C50.0881 81.9443 49.8683 82.4752 49.4769 82.8666C49.0855 83.2579 48.5546 83.4778 48.0011 83.4778Z" fill="#1D1D1D" fill-opacity="0.05"/>
<path d="M48.0011 83.4778C47.4476 83.4778 46.9167 83.2579 46.5253 82.8666C46.1339 82.4752 45.9141 81.9443 45.9141 81.3908V64.6945C45.9141 64.1409 46.1339 63.6101 46.5253 63.2187C46.9167 62.8273 47.4476 62.6074 48.0011 62.6074C48.5546 62.6074 49.0855 62.8273 49.4769 63.2187C49.8683 63.6101 50.0881 64.1409 50.0881 64.6945V81.3908C50.0881 81.9443 49.8683 82.4752 49.4769 82.8666C49.0855 83.2579 48.5546 83.4778 48.0011 83.4778Z" fill="url(#paint7_linear_146_2530)" fill-opacity="0.2"/>
<path d="M48.0011 82.9778C47.5802 82.9778 47.1765 82.8106 46.8789 82.513C46.5813 82.2154 46.4141 81.8117 46.4141 81.3908V64.6945C46.4141 64.2736 46.5813 63.8699 46.8789 63.5723C47.1765 63.2746 47.5802 63.1074 48.0011 63.1074C48.422 63.1074 48.8257 63.2746 49.1233 63.5723C49.4209 63.8699 49.5881 64.2736 49.5881 64.6945V81.3908C49.5881 81.8117 49.4209 82.2154 49.1233 82.513C48.8257 82.8106 48.422 82.9778 48.0011 82.9778Z" stroke="url(#paint8_linear_146_2530)" stroke-opacity="0.1"/>
</g>
<g filter="url(#filter2_bi_146_2530)">
<path d="M25.0436 77.2177C24.4901 77.2177 23.9593 76.9978 23.5679 76.6064C23.1765 76.215 22.9566 75.6841 22.9566 75.1306V66.7824C22.9544 66.3928 23.0614 66.0104 23.2654 65.6785C23.4694 65.3465 23.7622 65.0783 24.1107 64.9041L40.807 56.5559C41.3024 56.3085 41.8758 56.268 42.4011 56.4434C42.9263 56.6187 43.3604 56.9955 43.6078 57.4909C43.8553 57.9863 43.8958 58.5597 43.7204 59.085C43.5451 59.6102 43.1682 60.0443 42.6728 60.2918L27.1307 68.0722V75.1306C27.1307 75.6841 26.9108 76.215 26.5194 76.6064C26.128 76.9978 25.5971 77.2177 25.0436 77.2177Z" fill="#1D1D1D" fill-opacity="0.05"/>
<path d="M25.0436 77.2177C24.4901 77.2177 23.9593 76.9978 23.5679 76.6064C23.1765 76.215 22.9566 75.6841 22.9566 75.1306V66.7824C22.9544 66.3928 23.0614 66.0104 23.2654 65.6785C23.4694 65.3465 23.7622 65.0783 24.1107 64.9041L40.807 56.5559C41.3024 56.3085 41.8758 56.268 42.4011 56.4434C42.9263 56.6187 43.3604 56.9955 43.6078 57.4909C43.8553 57.9863 43.8958 58.5597 43.7204 59.085C43.5451 59.6102 43.1682 60.0443 42.6728 60.2918L27.1307 68.0722V75.1306C27.1307 75.6841 26.9108 76.215 26.5194 76.6064C26.128 76.9978 25.5971 77.2177 25.0436 77.2177Z" fill="url(#paint9_linear_146_2530)" fill-opacity="0.2"/>
<path d="M23.4566 66.7824L23.4566 66.7797C23.4549 66.4834 23.5363 66.1926 23.6914 65.9402C23.8465 65.6878 24.0692 65.4838 24.3342 65.3514L24.3343 65.3513L41.0304 57.0033C41.0305 57.0032 41.0306 57.0032 41.0306 57.0032C41.4074 56.8151 41.8434 56.7843 42.2428 56.9176C42.6422 57.051 42.9724 57.3376 43.1605 57.7144C43.3487 58.0911 43.3795 58.5272 43.2461 58.9267C43.1128 59.3261 42.8262 59.6563 42.4494 59.8444L42.449 59.8446L26.9068 67.6251L26.6307 67.7634V68.0722V75.1306C26.6307 75.5515 26.4634 75.9552 26.1658 76.2528C25.8682 76.5504 25.4645 76.7177 25.0436 76.7177C24.6227 76.7177 24.219 76.5504 23.9214 76.2528C23.6238 75.9552 23.4566 75.5515 23.4566 75.1306L23.4566 66.7824Z" stroke="url(#paint10_linear_146_2530)" stroke-opacity="0.1"/>
</g>
<g filter="url(#filter3_bi_146_2530)">
<path d="M70.959 77.2173C70.4055 77.2173 69.8747 76.9974 69.4833 76.606C69.0919 76.2146 68.872 75.6838 68.872 75.1302V68.0719L53.3298 60.3123C52.8344 60.0648 52.4576 59.6308 52.2822 59.1055C52.1069 58.5802 52.1474 58.0068 52.3948 57.5115C52.6422 57.0161 53.0763 56.6392 53.6016 56.4639C54.1268 56.2885 54.7002 56.329 55.1956 56.5765L71.8919 64.9246C72.2373 65.0972 72.528 65.3622 72.7318 65.6901C72.9355 66.018 73.0443 66.396 73.0461 66.7821V75.1302C73.0461 75.6838 72.8262 76.2146 72.4348 76.606C72.0434 76.9974 71.5126 77.2173 70.959 77.2173Z" fill="#1D1D1D" fill-opacity="0.05"/>
<path d="M70.959 77.2173C70.4055 77.2173 69.8747 76.9974 69.4833 76.606C69.0919 76.2146 68.872 75.6838 68.872 75.1302V68.0719L53.3298 60.3123C52.8344 60.0648 52.4576 59.6308 52.2822 59.1055C52.1069 58.5802 52.1474 58.0068 52.3948 57.5115C52.6422 57.0161 53.0763 56.6392 53.6016 56.4639C54.1268 56.2885 54.7002 56.329 55.1956 56.5765L71.8919 64.9246C72.2373 65.0972 72.528 65.3622 72.7318 65.6901C72.9355 66.018 73.0443 66.396 73.0461 66.7821V75.1302C73.0461 75.6838 72.8262 76.2146 72.4348 76.606C72.0434 76.9974 71.5126 77.2173 70.959 77.2173Z" fill="url(#paint11_linear_146_2530)" fill-opacity="0.2"/>
<path d="M69.372 68.0719V67.7627L69.0953 67.6245L53.5532 59.8649C53.5532 59.8649 53.5532 59.8649 53.5532 59.8649C53.1764 59.6767 52.8899 59.3466 52.7565 58.9472C52.6232 58.5477 52.654 58.1116 52.8421 57.7349C53.0303 57.3581 53.3604 57.0715 53.7599 56.9382C54.1594 56.8048 54.5955 56.8356 54.9722 57.0238L71.6683 65.3718L71.6685 65.3719C71.9311 65.5031 72.1521 65.7046 72.3071 65.954C72.4618 66.203 72.5445 66.49 72.5461 66.7832V75.1302C72.5461 75.5512 72.3789 75.9548 72.0813 76.2525C71.7836 76.5501 71.38 76.7173 70.959 76.7173C70.5381 76.7173 70.1345 76.5501 69.8368 76.2525C69.5392 75.9548 69.372 75.5512 69.372 75.1302V68.0719Z" stroke="url(#paint12_linear_146_2530)" stroke-opacity="0.1"/>
</g>
</g>
<defs>
<filter id="filter0_bi_146_2530" x="4.69531" y="-12" width="86.6112" height="78.28" filterUnits="userSpaceOnUse" color-interpolation-filters="sRGB">
<feFlood flood-opacity="0" result="BackgroundImageFix"/>
<feGaussianBlur in="BackgroundImageFix" stdDeviation="6"/>
<feComposite in2="SourceAlpha" operator="in" result="effect1_backgroundBlur_146_2530"/>
<feBlend mode="normal" in="SourceGraphic" in2="effect1_backgroundBlur_146_2530" result="shape"/>
<feColorMatrix in="SourceAlpha" type="matrix" values="0 0 0 0 0 0 0 0 0 0 0 0 0 0 0 0 0 0 127 0" result="hardAlpha"/>
<feOffset dy="2"/>
<feGaussianBlur stdDeviation="4"/>
<feComposite in2="hardAlpha" operator="arithmetic" k2="-1" k3="1"/>
<feColorMatrix type="matrix" values="0 0 0 0 1 0 0 0 0 1 0 0 0 0 1 0 0 0 0.15 0"/>
<feBlend mode="normal" in2="shape" result="effect2_innerShadow_146_2530"/>
</filter>
<filter id="filter1_bi_146_2530" x="33.9141" y="50.6074" width="28.1741" height="44.8704" filterUnits="userSpaceOnUse" color-interpolation-filters="sRGB">
<feFlood flood-opacity="0" result="BackgroundImageFix"/>
<feGaussianBlur in="BackgroundImageFix" stdDeviation="6"/>
<feComposite in2="SourceAlpha" operator="in" result="effect1_backgroundBlur_146_2530"/>
<feBlend mode="normal" in="SourceGraphic" in2="effect1_backgroundBlur_146_2530" result="shape"/>
<feColorMatrix in="SourceAlpha" type="matrix" values="0 0 0 0 0 0 0 0 0 0 0 0 0 0 0 0 0 0 127 0" result="hardAlpha"/>
<feOffset dy="2"/>
<feGaussianBlur stdDeviation="4"/>
<feComposite in2="hardAlpha" operator="arithmetic" k2="-1" k3="1"/>
<feColorMatrix type="matrix" values="0 0 0 0 1 0 0 0 0 1 0 0 0 0 1 0 0 0 0.15 0"/>
<feBlend mode="normal" in2="shape" result="effect2_innerShadow_146_2530"/>
</filter>
<filter id="filter2_bi_146_2530" x="10.9565" y="44.3359" width="44.8713" height="44.8818" filterUnits="userSpaceOnUse" color-interpolation-filters="sRGB">
<feFlood flood-opacity="0" result="BackgroundImageFix"/>
<feGaussianBlur in="BackgroundImageFix" stdDeviation="6"/>
<feComposite in2="SourceAlpha" operator="in" result="effect1_backgroundBlur_146_2530"/>
<feBlend mode="normal" in="SourceGraphic" in2="effect1_backgroundBlur_146_2530" result="shape"/>
<feColorMatrix in="SourceAlpha" type="matrix" values="0 0 0 0 0 0 0 0 0 0 0 0 0 0 0 0 0 0 127 0" result="hardAlpha"/>
<feOffset dy="2"/>
<feGaussianBlur stdDeviation="4"/>
<feComposite in2="hardAlpha" operator="arithmetic" k2="-1" k3="1"/>
<feColorMatrix type="matrix" values="0 0 0 0 1 0 0 0 0 1 0 0 0 0 1 0 0 0 0.15 0"/>
<feBlend mode="normal" in2="shape" result="effect2_innerShadow_146_2530"/>
</filter>
<filter id="filter3_bi_146_2530" x="40.1748" y="44.3564" width="44.8713" height="44.8608" filterUnits="userSpaceOnUse" color-interpolation-filters="sRGB">
<feFlood flood-opacity="0" result="BackgroundImageFix"/>
<feGaussianBlur in="BackgroundImageFix" stdDeviation="6"/>
<feComposite in2="SourceAlpha" operator="in" result="effect1_backgroundBlur_146_2530"/>
<feBlend mode="normal" in="SourceGraphic" in2="effect1_backgroundBlur_146_2530" result="shape"/>
<feColorMatrix in="SourceAlpha" type="matrix" values="0 0 0 0 0 0 0 0 0 0 0 0 0 0 0 0 0 0 127 0" result="hardAlpha"/>
<feOffset dy="2"/>
<feGaussianBlur stdDeviation="4"/>
<feComposite in2="hardAlpha" operator="arithmetic" k2="-1" k3="1"/>
<feColorMatrix type="matrix" values="0 0 0 0 1 0 0 0 0 1 0 0 0 0 1 0 0 0 0.15 0"/>
<feBlend mode="normal" in2="shape" result="effect2_innerShadow_146_2530"/>
</filter>
<linearGradient id="paint0_linear_146_2530" x1="33.3916" y1="16.6924" x2="67.8102" y2="25.4319" gradientUnits="userSpaceOnUse">
<stop stop-color="#9783FF"/>
<stop offset="0.703125" stop-color="#7E52FF"/>
</linearGradient>
<linearGradient id="paint1_linear_146_2530" x1="39.6528" y1="50.085" x2="59.3206" y2="55.079" gradientUnits="userSpaceOnUse">
<stop stop-color="#9783FF"/>
<stop offset="0.703125" stop-color="#7E52FF"/>
</linearGradient>
<linearGradient id="paint2_linear_146_2530" x1="39.6528" y1="79.3037" x2="59.3206" y2="84.2977" gradientUnits="userSpaceOnUse">
<stop stop-color="#9783FF"/>
<stop offset="0.703125" stop-color="#7E52FF"/>
</linearGradient>
<linearGradient id="paint3_linear_146_2530" x1="16.6953" y1="73.042" x2="36.3631" y2="78.036" gradientUnits="userSpaceOnUse">
<stop stop-color="#9783FF"/>
<stop offset="0.703125" stop-color="#7E52FF"/>
</linearGradient>
<linearGradient id="paint4_linear_146_2530" x1="62.6104" y1="73.042" x2="82.2781" y2="78.036" gradientUnits="userSpaceOnUse">
<stop stop-color="#9783FF"/>
<stop offset="0.703125" stop-color="#7E52FF"/>
</linearGradient>
<linearGradient id="paint5_linear_146_2530" x1="16.6953" y1="0" x2="89.0019" y2="21.178" gradientUnits="userSpaceOnUse">
<stop stop-color="#7E52FF"/>
<stop offset="0.776042" stop-color="#7E52FF"/>
</linearGradient>
<linearGradient id="paint6_linear_146_2530" x1="18.6519" y1="2.46728" x2="79.3066" y2="2.46728" gradientUnits="userSpaceOnUse">
<stop stop-color="#7E52FF"/>
<stop offset="0.65625" stop-color="#51487D"/>
</linearGradient>
<linearGradient id="paint7_linear_146_2530" x1="45.9141" y1="62.6074" x2="51.1346" y2="62.8725" gradientUnits="userSpaceOnUse">
<stop stop-color="#7E52FF"/>
<stop offset="0.776042" stop-color="#7E52FF"/>
</linearGradient>
<linearGradient id="paint8_linear_146_2530" x1="46.0445" y1="63.5561" x2="50.0881" y2="63.5561" gradientUnits="userSpaceOnUse">
<stop stop-color="#7E52FF"/>
<stop offset="0.65625" stop-color="#51487D"/>
</linearGradient>
<linearGradient id="paint9_linear_146_2530" x1="22.9565" y1="56.3359" x2="47.5438" y2="62.576" gradientUnits="userSpaceOnUse">
<stop stop-color="#7E52FF"/>
<stop offset="0.776042" stop-color="#7E52FF"/>
</linearGradient>
<linearGradient id="paint10_linear_146_2530" x1="23.6088" y1="57.2851" x2="43.8279" y2="57.2851" gradientUnits="userSpaceOnUse">
<stop stop-color="#7E52FF"/>
<stop offset="0.65625" stop-color="#51487D"/>
</linearGradient>
<linearGradient id="paint11_linear_146_2530" x1="52.1748" y1="56.3564" x2="76.759" y2="62.602" gradientUnits="userSpaceOnUse">
<stop stop-color="#7E52FF"/>
<stop offset="0.776042" stop-color="#7E52FF"/>
</linearGradient>
<linearGradient id="paint12_linear_146_2530" x1="52.827" y1="57.3047" x2="73.0461" y2="57.3047" gradientUnits="userSpaceOnUse">
<stop stop-color="#7E52FF"/>
<stop offset="0.65625" stop-color="#51487D"/>
</linearGradient>
<clipPath id="clip0_146_2530">
<rect width="96" height="96" fill="white"/>
</clipPath>
</defs>
</svg>
