<svg width="80" height="58" viewBox="0 0 80 58" fill="none" xmlns="http://www.w3.org/2000/svg">
  <path fill-rule="evenodd" clip-rule="evenodd" d="M76.789 52.0162C76.789 53.3459 75.7105 54.4244 74.3808 54.4244H65.6876V32.8483C65.6876 29.7453 63.1714 27.2291 60.0684 27.2291H19.9316C16.8286 27.2291 14.3124 29.7453 14.3124 32.8483V54.4244H5.61916C4.28947 54.4244 3.21095 53.3459 3.21095 52.0162V19.3889C3.21095 18.7128 3.82116 17.7982 4.44571 17.5383L38.2579 3.47109C39.0871 3.12593 40.6474 3.12397 41.4778 3.46702L75.5555 17.5454C76.1792 17.803 76.789 18.7145 76.789 19.3889V52.0162ZM17.5233 54.4244H62.4767V32.8483C62.4767 31.5186 61.3981 30.4401 60.0684 30.4401H19.9316C18.6019 30.4401 17.5233 31.5186 17.5233 32.8483V54.4244ZM5.61916 57.6353H74.3808C77.4838 57.6353 80 55.1192 80 52.0162V19.3889C80 17.4145 78.6064 15.3316 76.7815 14.5777L42.7038 0.499317C41.0856 -0.169134 38.6402 -0.166155 37.0241 0.506608L3.21236 14.5736C1.39044 15.3315 0 17.4158 0 19.3889V52.0162C0 55.1192 2.51616 57.6353 5.61916 57.6353Z" fill="black"/>
</svg>
