<svg width="96" height="96" viewBox="0 0 96 96" fill="none" xmlns="http://www.w3.org/2000/svg">
<g clip-path="url(#clip0_146_2545)">
<g filter="url(#filter0_bi_146_2545)">
<path d="M48 13.3721C24.2069 13.3721 4.91016 17.9166 4.91016 23.5236V72.5891C4.91016 73.0378 5.10754 73.4682 5.45888 73.7855C5.81023 74.1028 6.28675 74.281 6.78363 74.281C7.2805 74.281 7.75703 74.1028 8.10837 73.7855C8.45972 73.4682 8.6571 73.0378 8.6571 72.5891C8.6571 69.1393 23.984 64.1295 48 64.1295C72.016 64.1295 87.3429 69.1393 87.3429 72.5891C87.3429 73.0378 87.5403 73.4682 87.8916 73.7855C88.243 74.1028 88.7195 74.281 89.2164 74.281C89.7132 74.281 90.1898 74.1028 90.5411 73.7855C90.8925 73.4682 91.0898 73.0378 91.0898 72.5891V23.5236C91.0898 17.9166 71.7931 13.3721 48 13.3721Z" fill="url(#paint0_linear_146_2545)"/>
<path d="M5.41016 23.5236C5.41016 22.4224 6.375 21.2146 8.54032 20.0088C10.6631 18.8265 13.7679 17.7457 17.6473 16.8319C25.3981 15.0061 36.1303 13.8721 48 13.8721C59.8697 13.8721 70.6019 15.0061 78.3527 16.8319C82.2321 17.7457 85.3369 18.8265 87.4597 20.0088C89.625 21.2146 90.5898 22.4224 90.5898 23.5236V72.5891C90.5898 72.8878 90.4589 73.186 90.206 73.4144C89.9514 73.6443 89.5962 73.781 89.2164 73.781C88.8366 73.781 88.4813 73.6443 88.2267 73.4144C87.9738 73.186 87.8429 72.8878 87.8429 72.5891C87.8429 71.9682 87.5006 71.3925 86.9914 70.882C86.4762 70.3656 85.7355 69.8594 84.8059 69.3696C82.9437 68.3884 80.2341 67.427 76.7971 66.5802C69.9165 64.885 60.0395 63.6295 48 63.6295C35.9605 63.6295 26.0835 64.885 19.2029 66.5802C15.7659 67.427 13.0563 68.3884 11.1941 69.3696C10.2645 69.8594 9.52378 70.3656 9.0086 70.882C8.49936 71.3925 8.1571 71.9682 8.1571 72.5891C8.1571 72.8878 8.02615 73.186 7.77326 73.4144C7.51868 73.6443 7.16341 73.781 6.78363 73.781C6.40384 73.781 6.04858 73.6443 5.794 73.4144C5.5411 73.186 5.41016 72.8878 5.41016 72.5891V23.5236Z" stroke="black"/>
</g>
<g filter="url(#filter1_bi_146_2545)">
<path d="M48 6.26074C21.4957 6.26074 0 11.8663 0 18.7825V79.3042C0 79.8577 0.219875 80.3885 0.611255 80.7799C1.00264 81.1713 1.53346 81.3912 2.08696 81.3912C2.64045 81.3912 3.17128 81.1713 3.56266 80.7799C3.95404 80.3885 4.17391 79.8577 4.17391 79.3042C4.17391 75.0489 21.2473 68.8694 48 68.8694C74.7527 68.8694 91.8261 75.0489 91.8261 79.3042C91.8261 79.8577 92.046 80.3885 92.4373 80.7799C92.8287 81.1713 93.3596 81.3912 93.913 81.3912C94.4665 81.3912 94.9974 81.1713 95.3887 80.7799C95.7801 80.3885 96 79.8577 96 79.3042V18.7825C96 11.8663 74.5043 6.26074 48 6.26074Z" fill="#1D1D1D" fill-opacity="0.05"/>
<path d="M48 6.26074C21.4957 6.26074 0 11.8663 0 18.7825V79.3042C0 79.8577 0.219875 80.3885 0.611255 80.7799C1.00264 81.1713 1.53346 81.3912 2.08696 81.3912C2.64045 81.3912 3.17128 81.1713 3.56266 80.7799C3.95404 80.3885 4.17391 79.8577 4.17391 79.3042C4.17391 75.0489 21.2473 68.8694 48 68.8694C74.7527 68.8694 91.8261 75.0489 91.8261 79.3042C91.8261 79.8577 92.046 80.3885 92.4373 80.7799C92.8287 81.1713 93.3596 81.3912 93.913 81.3912C94.4665 81.3912 94.9974 81.1713 95.3887 80.7799C95.7801 80.3885 96 79.8577 96 79.3042V18.7825C96 11.8663 74.5043 6.26074 48 6.26074Z" fill="url(#paint1_linear_146_2545)" fill-opacity="0.2"/>
<path d="M0.5 18.7825C0.5 17.329 1.63835 15.8119 4.03527 14.3338C6.40443 12.8728 9.86582 11.539 14.1871 10.4119C22.8221 8.15949 34.7777 6.76074 48 6.76074C61.2223 6.76074 73.1779 8.15949 81.8129 10.4119C86.1342 11.539 89.5956 12.8728 91.9647 14.3338C94.3616 15.8119 95.5 17.329 95.5 18.7825V79.3042C95.5 79.7251 95.3328 80.1288 95.0352 80.4264C94.7376 80.724 94.3339 80.8912 93.913 80.8912C93.4922 80.8912 93.0885 80.724 92.7909 80.4264C92.4933 80.1288 92.3261 79.7251 92.3261 79.3042C92.3261 78.601 91.9748 77.9245 91.4117 77.2995C90.8456 76.6711 90.0267 76.0502 88.9923 75.4467C86.9216 74.2386 83.9055 73.0532 80.0769 72.0087C72.4134 69.918 61.4114 68.3694 48 68.3694C34.5886 68.3694 23.5866 69.918 15.9231 72.0087C12.0945 73.0532 9.07839 74.2386 7.00768 75.4467C5.97325 76.0502 5.15441 76.6711 4.5883 77.2995C4.02522 77.9245 3.67391 78.601 3.67391 79.3042C3.67391 79.7251 3.50672 80.1288 3.2091 80.4264C2.91149 80.724 2.50785 80.8912 2.08696 80.8912C1.66607 80.8912 1.26242 80.724 0.964809 80.4264C0.667197 80.1288 0.5 79.7251 0.5 79.3042V18.7825Z" stroke="url(#paint2_linear_146_2545)" stroke-opacity="0.1"/>
</g>
<g filter="url(#filter2_i_146_2545)">
<path d="M70.6062 40.5803C70.2389 40.0335 61.4841 27.1299 48.0003 27.1299C34.5165 27.1299 25.7617 40.0335 25.3944 40.5803C25.1656 40.9233 25.0435 41.3263 25.0435 41.7386C25.0435 42.1509 25.1656 42.5539 25.3944 42.8968C25.7617 43.4436 34.5165 56.3473 48.0003 56.3473C61.4841 56.3473 70.2389 43.4436 70.6062 42.8968C70.835 42.5539 70.9571 42.1509 70.9571 41.7386C70.9571 41.3263 70.835 40.9233 70.6062 40.5803Z" fill="white" fill-opacity="0.1"/>
</g>
<g filter="url(#filter3_bi_146_2545)">
<path d="M47.9999 48.0003C51.4577 48.0003 54.2608 45.1972 54.2608 41.7394C54.2608 38.2816 51.4577 35.4785 47.9999 35.4785C44.5421 35.4785 41.739 38.2816 41.739 41.7394C41.739 45.1972 44.5421 48.0003 47.9999 48.0003Z" fill="url(#paint3_linear_146_2545)"/>
<path d="M53.7608 41.7394C53.7608 44.921 51.1815 47.5003 47.9999 47.5003C44.8182 47.5003 42.239 44.921 42.239 41.7394C42.239 38.5577 44.8182 35.9785 47.9999 35.9785C51.1815 35.9785 53.7608 38.5577 53.7608 41.7394Z" stroke="black"/>
</g>
<g filter="url(#filter4_bi_146_2545)">
<path d="M48 52.1743C53.7629 52.1743 58.4347 47.5024 58.4347 41.7395C58.4347 35.9765 53.7629 31.3047 48 31.3047C42.237 31.3047 37.5652 35.9765 37.5652 41.7395C37.5652 47.5024 42.237 52.1743 48 52.1743Z" fill="#1D1D1D" fill-opacity="0.05"/>
<path d="M48 52.1743C53.7629 52.1743 58.4347 47.5024 58.4347 41.7395C58.4347 35.9765 53.7629 31.3047 48 31.3047C42.237 31.3047 37.5652 35.9765 37.5652 41.7395C37.5652 47.5024 42.237 52.1743 48 52.1743Z" fill="url(#paint4_linear_146_2545)" fill-opacity="0.2"/>
<path d="M57.9347 41.7395C57.9347 47.2263 53.4868 51.6743 48 51.6743C42.5131 51.6743 38.0652 47.2263 38.0652 41.7395C38.0652 36.2526 42.5131 31.8047 48 31.8047C53.4868 31.8047 57.9347 36.2526 57.9347 41.7395Z" stroke="url(#paint5_linear_146_2545)" stroke-opacity="0.1"/>
</g>
<g filter="url(#filter5_i_146_2545)">
<path d="M47.9992 47.9993C51.4569 47.9993 54.26 45.1962 54.26 41.7384C54.26 38.2806 51.4569 35.4775 47.9992 35.4775C44.5414 35.4775 41.7383 38.2806 41.7383 41.7384C41.7383 45.1962 44.5414 47.9993 47.9992 47.9993Z" fill="url(#paint6_linear_146_2545)"/>
</g>
<g filter="url(#filter6_bi_146_2545)">
<path d="M15.1075 27.9022L14.9134 27.8501C5.73287 25.569 0 22.3509 0 18.7822V79.064C0 83.4027 4.7207 86.9673 14.0306 89.6574C14.3414 89.747 14.6688 89.7631 14.9869 89.7045C15.305 89.6459 15.6051 89.5141 15.8636 89.3196C16.122 89.1251 16.3317 88.8732 16.4761 88.5837C16.6205 88.2943 16.6957 87.9753 16.6957 87.6518V29.9287C16.6956 29.4619 16.5392 29.0087 16.2513 28.6414C15.9634 28.274 15.5607 28.0138 15.1075 27.9022Z" fill="#1D1D1D" fill-opacity="0.05"/>
<path d="M15.1075 27.9022L14.9134 27.8501C5.73287 25.569 0 22.3509 0 18.7822V79.064C0 83.4027 4.7207 86.9673 14.0306 89.6574C14.3414 89.747 14.6688 89.7631 14.9869 89.7045C15.305 89.6459 15.6051 89.5141 15.8636 89.3196C16.122 89.1251 16.3317 88.8732 16.4761 88.5837C16.6205 88.2943 16.6957 87.9753 16.6957 87.6518V29.9287C16.6956 29.4619 16.5392 29.0087 16.2513 28.6414C15.9634 28.274 15.5607 28.0138 15.1075 27.9022Z" fill="url(#paint7_linear_146_2545)" fill-opacity="0.2"/>
<path d="M14.9777 28.3851L14.9777 28.3852L14.988 28.3877C15.3326 28.4726 15.6388 28.6704 15.8578 28.9498C16.0767 29.2291 16.1956 29.5738 16.1957 29.9287V87.6518C16.1957 87.8978 16.1385 88.1404 16.0287 88.3605C15.9189 88.5806 15.7595 88.7722 15.5629 88.9201C15.3664 89.068 15.1382 89.1682 14.8963 89.2127C14.6544 89.2573 14.4055 89.2451 14.1691 89.1769C9.54014 87.8394 6.09913 86.2967 3.82537 84.5799C1.55833 82.8682 0.5 81.0246 0.5 79.064V21.5061C1.2409 22.4888 2.3623 23.398 3.75831 24.2287C6.39813 25.7996 10.1781 27.1884 14.7882 28.3341L14.9777 28.3851Z" stroke="url(#paint8_linear_146_2545)" stroke-opacity="0.1"/>
</g>
<g filter="url(#filter7_bi_146_2545)">
<path d="M80.8926 27.9022L81.0867 27.8501C90.2672 25.569 96.0001 22.3509 96.0001 18.7822V79.064C96.0001 83.4027 91.2794 86.9673 81.9695 89.6574C81.6587 89.747 81.3313 89.7631 81.0132 89.7045C80.6951 89.6459 80.395 89.5141 80.1365 89.3196C79.8781 89.1251 79.6683 88.8732 79.5239 88.5837C79.3795 88.2943 79.3044 87.9753 79.3044 87.6518V29.9287C79.3045 29.4619 79.4609 29.0087 79.7488 28.6414C80.0367 28.274 80.4394 28.0138 80.8926 27.9022Z" fill="#1D1D1D" fill-opacity="0.05"/>
<path d="M80.8926 27.9022L81.0867 27.8501C90.2672 25.569 96.0001 22.3509 96.0001 18.7822V79.064C96.0001 83.4027 91.2794 86.9673 81.9695 89.6574C81.6587 89.747 81.3313 89.7631 81.0132 89.7045C80.6951 89.6459 80.395 89.5141 80.1365 89.3196C79.8781 89.1251 79.6683 88.8732 79.5239 88.5837C79.3795 88.2943 79.3044 87.9753 79.3044 87.6518V29.9287C79.3045 29.4619 79.4609 29.0087 79.7488 28.6414C80.0367 28.274 80.4394 28.0138 80.8926 27.9022Z" fill="url(#paint9_linear_146_2545)" fill-opacity="0.2"/>
<path d="M81.0121 28.3877L81.0121 28.3878L81.0224 28.3851L81.2119 28.3341C85.822 27.1884 89.602 25.7996 92.2418 24.2287C93.6378 23.398 94.7592 22.4888 95.5001 21.5061V79.064C95.5001 81.0246 94.4418 82.8682 92.1747 84.5799C89.901 86.2967 86.46 87.8394 81.831 89.1769C81.5946 89.2451 81.3457 89.2573 81.1038 89.2127C80.8619 89.1682 80.6337 89.068 80.4372 88.9201C80.2406 88.7722 80.0812 88.5806 79.9714 88.3605C79.8616 88.1404 79.8044 87.8978 79.8044 87.6519V29.9287C79.8045 29.5738 79.9234 29.2291 80.1423 28.9498L79.7488 28.6414L80.1423 28.9498C80.3613 28.6704 80.6675 28.4726 81.0121 28.3877Z" stroke="url(#paint10_linear_146_2545)" stroke-opacity="0.1"/>
</g>
<g filter="url(#filter8_i_146_2545)">
<path d="M43.826 39.6524C44.9786 39.6524 45.9129 38.7181 45.9129 37.5655C45.9129 36.4129 44.9786 35.4785 43.826 35.4785C42.6734 35.4785 41.739 36.4129 41.739 37.5655C41.739 38.7181 42.6734 39.6524 43.826 39.6524Z" fill="white" fill-opacity="0.1"/>
</g>
</g>
<defs>
<filter id="filter0_bi_146_2545" x="-4.7678" y="3.69411" width="105.536" height="80.2649" filterUnits="userSpaceOnUse" color-interpolation-filters="sRGB">
<feFlood flood-opacity="0" result="BackgroundImageFix"/>
<feGaussianBlur in="BackgroundImageFix" stdDeviation="4.83898"/>
<feComposite in2="SourceAlpha" operator="in" result="effect1_backgroundBlur_146_2545"/>
<feBlend mode="normal" in="SourceGraphic" in2="effect1_backgroundBlur_146_2545" result="shape"/>
<feColorMatrix in="SourceAlpha" type="matrix" values="0 0 0 0 0 0 0 0 0 0 0 0 0 0 0 0 0 0 127 0" result="hardAlpha"/>
<feOffset dy="1.61299"/>
<feGaussianBlur stdDeviation="3.22599"/>
<feComposite in2="hardAlpha" operator="arithmetic" k2="-1" k3="1"/>
<feColorMatrix type="matrix" values="0 0 0 0 1 0 0 0 0 1 0 0 0 0 1 0 0 0 0.4 0"/>
<feBlend mode="normal" in2="shape" result="effect2_innerShadow_146_2545"/>
</filter>
<filter id="filter1_bi_146_2545" x="-3" y="3.26074" width="102" height="81.1304" filterUnits="userSpaceOnUse" color-interpolation-filters="sRGB">
<feFlood flood-opacity="0" result="BackgroundImageFix"/>
<feGaussianBlur in="BackgroundImageFix" stdDeviation="1.5"/>
<feComposite in2="SourceAlpha" operator="in" result="effect1_backgroundBlur_146_2545"/>
<feBlend mode="normal" in="SourceGraphic" in2="effect1_backgroundBlur_146_2545" result="shape"/>
<feColorMatrix in="SourceAlpha" type="matrix" values="0 0 0 0 0 0 0 0 0 0 0 0 0 0 0 0 0 0 127 0" result="hardAlpha"/>
<feOffset dy="0.5"/>
<feGaussianBlur stdDeviation="1"/>
<feComposite in2="hardAlpha" operator="arithmetic" k2="-1" k3="1"/>
<feColorMatrix type="matrix" values="0 0 0 0 1 0 0 0 0 1 0 0 0 0 1 0 0 0 0.15 0"/>
<feBlend mode="normal" in2="shape" result="effect2_innerShadow_146_2545"/>
</filter>
<filter id="filter2_i_146_2545" x="25.0435" y="27.1299" width="45.9137" height="29.7173" filterUnits="userSpaceOnUse" color-interpolation-filters="sRGB">
<feFlood flood-opacity="0" result="BackgroundImageFix"/>
<feBlend mode="normal" in="SourceGraphic" in2="BackgroundImageFix" result="shape"/>
<feColorMatrix in="SourceAlpha" type="matrix" values="0 0 0 0 0 0 0 0 0 0 0 0 0 0 0 0 0 0 127 0" result="hardAlpha"/>
<feOffset dy="0.5"/>
<feGaussianBlur stdDeviation="0.25"/>
<feComposite in2="hardAlpha" operator="arithmetic" k2="-1" k3="1"/>
<feColorMatrix type="matrix" values="0 0 0 0 1 0 0 0 0 1 0 0 0 0 1 0 0 0 0.1 0"/>
<feBlend mode="normal" in2="shape" result="effect1_innerShadow_146_2545"/>
</filter>
<filter id="filter3_bi_146_2545" x="32.0611" y="25.8006" width="31.8776" height="31.8776" filterUnits="userSpaceOnUse" color-interpolation-filters="sRGB">
<feFlood flood-opacity="0" result="BackgroundImageFix"/>
<feGaussianBlur in="BackgroundImageFix" stdDeviation="4.83898"/>
<feComposite in2="SourceAlpha" operator="in" result="effect1_backgroundBlur_146_2545"/>
<feBlend mode="normal" in="SourceGraphic" in2="effect1_backgroundBlur_146_2545" result="shape"/>
<feColorMatrix in="SourceAlpha" type="matrix" values="0 0 0 0 0 0 0 0 0 0 0 0 0 0 0 0 0 0 127 0" result="hardAlpha"/>
<feOffset dy="1.61299"/>
<feGaussianBlur stdDeviation="3.22599"/>
<feComposite in2="hardAlpha" operator="arithmetic" k2="-1" k3="1"/>
<feColorMatrix type="matrix" values="0 0 0 0 1 0 0 0 0 1 0 0 0 0 1 0 0 0 0.4 0"/>
<feBlend mode="normal" in2="shape" result="effect2_innerShadow_146_2545"/>
</filter>
<filter id="filter4_bi_146_2545" x="34.5652" y="28.3047" width="26.8695" height="26.8696" filterUnits="userSpaceOnUse" color-interpolation-filters="sRGB">
<feFlood flood-opacity="0" result="BackgroundImageFix"/>
<feGaussianBlur in="BackgroundImageFix" stdDeviation="1.5"/>
<feComposite in2="SourceAlpha" operator="in" result="effect1_backgroundBlur_146_2545"/>
<feBlend mode="normal" in="SourceGraphic" in2="effect1_backgroundBlur_146_2545" result="shape"/>
<feColorMatrix in="SourceAlpha" type="matrix" values="0 0 0 0 0 0 0 0 0 0 0 0 0 0 0 0 0 0 127 0" result="hardAlpha"/>
<feOffset dy="0.5"/>
<feGaussianBlur stdDeviation="1"/>
<feComposite in2="hardAlpha" operator="arithmetic" k2="-1" k3="1"/>
<feColorMatrix type="matrix" values="0 0 0 0 1 0 0 0 0 1 0 0 0 0 1 0 0 0 0.4 0"/>
<feBlend mode="normal" in2="shape" result="effect2_innerShadow_146_2545"/>
</filter>
<filter id="filter5_i_146_2545" x="41.7383" y="35.4775" width="12.5217" height="13.0217" filterUnits="userSpaceOnUse" color-interpolation-filters="sRGB">
<feFlood flood-opacity="0" result="BackgroundImageFix"/>
<feBlend mode="normal" in="SourceGraphic" in2="BackgroundImageFix" result="shape"/>
<feColorMatrix in="SourceAlpha" type="matrix" values="0 0 0 0 0 0 0 0 0 0 0 0 0 0 0 0 0 0 127 0" result="hardAlpha"/>
<feOffset dy="0.5"/>
<feGaussianBlur stdDeviation="0.25"/>
<feComposite in2="hardAlpha" operator="arithmetic" k2="-1" k3="1"/>
<feColorMatrix type="matrix" values="0 0 0 0 1 0 0 0 0 1 0 0 0 0 1 0 0 0 0.4 0"/>
<feBlend mode="normal" in2="shape" result="effect1_innerShadow_146_2545"/>
</filter>
<filter id="filter6_bi_146_2545" x="-3" y="15.7822" width="22.6957" height="76.9568" filterUnits="userSpaceOnUse" color-interpolation-filters="sRGB">
<feFlood flood-opacity="0" result="BackgroundImageFix"/>
<feGaussianBlur in="BackgroundImageFix" stdDeviation="1.5"/>
<feComposite in2="SourceAlpha" operator="in" result="effect1_backgroundBlur_146_2545"/>
<feBlend mode="normal" in="SourceGraphic" in2="effect1_backgroundBlur_146_2545" result="shape"/>
<feColorMatrix in="SourceAlpha" type="matrix" values="0 0 0 0 0 0 0 0 0 0 0 0 0 0 0 0 0 0 127 0" result="hardAlpha"/>
<feOffset dy="0.5"/>
<feGaussianBlur stdDeviation="1"/>
<feComposite in2="hardAlpha" operator="arithmetic" k2="-1" k3="1"/>
<feColorMatrix type="matrix" values="0 0 0 0 1 0 0 0 0 1 0 0 0 0 1 0 0 0 0.15 0"/>
<feBlend mode="normal" in2="shape" result="effect2_innerShadow_146_2545"/>
</filter>
<filter id="filter7_bi_146_2545" x="76.3044" y="15.7822" width="22.6957" height="76.9568" filterUnits="userSpaceOnUse" color-interpolation-filters="sRGB">
<feFlood flood-opacity="0" result="BackgroundImageFix"/>
<feGaussianBlur in="BackgroundImageFix" stdDeviation="1.5"/>
<feComposite in2="SourceAlpha" operator="in" result="effect1_backgroundBlur_146_2545"/>
<feBlend mode="normal" in="SourceGraphic" in2="effect1_backgroundBlur_146_2545" result="shape"/>
<feColorMatrix in="SourceAlpha" type="matrix" values="0 0 0 0 0 0 0 0 0 0 0 0 0 0 0 0 0 0 127 0" result="hardAlpha"/>
<feOffset dy="0.5"/>
<feGaussianBlur stdDeviation="1"/>
<feComposite in2="hardAlpha" operator="arithmetic" k2="-1" k3="1"/>
<feColorMatrix type="matrix" values="0 0 0 0 1 0 0 0 0 1 0 0 0 0 1 0 0 0 0.15 0"/>
<feBlend mode="normal" in2="shape" result="effect2_innerShadow_146_2545"/>
</filter>
<filter id="filter8_i_146_2545" x="41.739" y="35.4785" width="4.17395" height="4.67383" filterUnits="userSpaceOnUse" color-interpolation-filters="sRGB">
<feFlood flood-opacity="0" result="BackgroundImageFix"/>
<feBlend mode="normal" in="SourceGraphic" in2="BackgroundImageFix" result="shape"/>
<feColorMatrix in="SourceAlpha" type="matrix" values="0 0 0 0 0 0 0 0 0 0 0 0 0 0 0 0 0 0 127 0" result="hardAlpha"/>
<feOffset dy="0.5"/>
<feGaussianBlur stdDeviation="0.25"/>
<feComposite in2="hardAlpha" operator="arithmetic" k2="-1" k3="1"/>
<feColorMatrix type="matrix" values="0 0 0 0 1 0 0 0 0 1 0 0 0 0 1 0 0 0 0.1 0"/>
<feBlend mode="normal" in2="shape" result="effect1_innerShadow_146_2545"/>
</filter>
<linearGradient id="paint0_linear_146_2545" x1="4.91016" y1="13.3721" x2="100.619" y2="47.7572" gradientUnits="userSpaceOnUse">
<stop stop-color="#BFA9FF"/>
<stop offset="0.703125" stop-color="#7E52FF"/>
</linearGradient>
<linearGradient id="paint1_linear_146_2545" x1="0" y1="6.26074" x2="108.911" y2="41.5971" gradientUnits="userSpaceOnUse">
<stop stop-color="#7E52FF"/>
<stop offset="0.776042" stop-color="#7E52FF"/>
</linearGradient>
<linearGradient id="paint2_linear_146_2545" x1="3" y1="9.67576" x2="96" y2="9.67576" gradientUnits="userSpaceOnUse">
<stop stop-color="#9177FF"/>
<stop offset="0.65625" stop-color="#7E52FF"/>
</linearGradient>
<linearGradient id="paint3_linear_146_2545" x1="41.739" y1="35.4785" x2="56.4892" y2="39.2239" gradientUnits="userSpaceOnUse">
<stop stop-color="#BFA9FF"/>
<stop offset="0.703125" stop-color="#7E52FF"/>
</linearGradient>
<linearGradient id="paint4_linear_146_2545" x1="37.5652" y1="31.3047" x2="62.1489" y2="37.5469" gradientUnits="userSpaceOnUse">
<stop stop-color="#7E52FF"/>
<stop offset="0.776042" stop-color="#7E52FF"/>
</linearGradient>
<linearGradient id="paint5_linear_146_2545" x1="38.2174" y1="32.2533" x2="58.4348" y2="32.2533" gradientUnits="userSpaceOnUse">
<stop stop-color="#9177FF"/>
<stop offset="0.65625" stop-color="#7E52FF"/>
</linearGradient>
<linearGradient id="paint6_linear_146_2545" x1="41.7383" y1="35.4775" x2="56.4885" y2="39.2229" gradientUnits="userSpaceOnUse">
<stop stop-color="#BFA9FF"/>
<stop offset="0.703125" stop-color="#7E52FF"/>
</linearGradient>
<linearGradient id="paint7_linear_146_2545" x1="0" y1="18.7822" x2="20.8605" y2="20.0285" gradientUnits="userSpaceOnUse">
<stop stop-color="#7E52FF"/>
<stop offset="0.776042" stop-color="#7E52FF"/>
</linearGradient>
<linearGradient id="paint8_linear_146_2545" x1="0.521739" y1="22.0075" x2="16.6957" y2="22.0075" gradientUnits="userSpaceOnUse">
<stop stop-color="#9177FF"/>
<stop offset="0.65625" stop-color="#7E52FF"/>
</linearGradient>
<linearGradient id="paint9_linear_146_2545" x1="79.3044" y1="18.7822" x2="100.165" y2="20.0285" gradientUnits="userSpaceOnUse">
<stop stop-color="#7E52FF"/>
<stop offset="0.776042" stop-color="#7E52FF"/>
</linearGradient>
<linearGradient id="paint10_linear_146_2545" x1="79.8262" y1="22.0075" x2="96.0001" y2="22.0075" gradientUnits="userSpaceOnUse">
<stop stop-color="#9177FF"/>
<stop offset="0.65625" stop-color="#7E52FF"/>
</linearGradient>
<clipPath id="clip0_146_2545">
<rect width="96" height="96" fill="white"/>
</clipPath>
</defs>
</svg>
